<?xml version="1.0" encoding="UTF-8" ?>
<svg version="1.1" width="32" height="32" xmlns="http://www.w3.org/2000/svg" shape-rendering="crispEdges">
<rect x="14" y="5" width="3" height="1" fill="#000000" />
<rect x="13" y="6" width="1" height="4" fill="#000000" />
<rect x="14" y="6" width="3" height="1" fill="#D9A066" />
<rect x="17" y="6" width="1" height="4" fill="#000000" />
<rect x="14" y="7" width="1" height="1" fill="#000000" />
<rect x="15" y="7" width="1" height="3" fill="#D9A066" />
<rect x="16" y="7" width="1" height="1" fill="#000000" />
<rect x="14" y="8" width="1" height="2" fill="#D9A066" />
<rect x="16" y="8" width="1" height="2" fill="#D9A066" />
<rect x="14" y="10" width="3" height="1" fill="#000000" />
<rect x="12" y="11" width="2" height="1" fill="#000000" />
<rect x="14" y="11" width="3" height="7" fill="#FBF236" />
<rect x="17" y="11" width="2" height="1" fill="#000000" />
<rect x="11" y="12" width="1" height="1" fill="#000000" />
<rect x="12" y="12" width="1" height="1" fill="#D9A066" />
<rect x="13" y="12" width="1" height="1" fill="#FBF236" />
<rect x="17" y="12" width="1" height="1" fill="#FBF236" />
<rect x="18" y="12" width="1" height="1" fill="#D9A066" />
<rect x="19" y="12" width="1" height="1" fill="#000000" />
<rect x="10" y="13" width="1" height="1" fill="#000000" />
<rect x="11" y="13" width="1" height="1" fill="#D9A066" />
<rect x="12" y="13" width="2" height="1" fill="#000000" />
<rect x="17" y="13" width="2" height="1" fill="#000000" />
<rect x="19" y="13" width="1" height="1" fill="#D9A066" />
<rect x="20" y="13" width="1" height="1" fill="#000000" />
<rect x="9" y="14" width="1" height="1" fill="#000000" />
<rect x="10" y="14" width="1" height="1" fill="#D9A066" />
<rect x="11" y="14" width="1" height="1" fill="#000000" />
<rect x="13" y="14" width="1" height="11" fill="#000000" />
<rect x="17" y="14" width="1" height="11" fill="#000000" />
<rect x="19" y="14" width="1" height="1" fill="#000000" />
<rect x="20" y="14" width="1" height="1" fill="#D9A066" />
<rect x="21" y="14" width="1" height="1" fill="#000000" />
<rect x="8" y="15" width="1" height="2" fill="#000000" />
<rect x="9" y="15" width="1" height="1" fill="#D9A066" />
<rect x="10" y="15" width="1" height="1" fill="#000000" />
<rect x="20" y="15" width="1" height="1" fill="#000000" />
<rect x="21" y="15" width="1" height="1" fill="#D9A066" />
<rect x="22" y="15" width="1" height="2" fill="#000000" />
<rect x="9" y="16" width="1" height="1" fill="#000000" />
<rect x="21" y="16" width="1" height="1" fill="#000000" />
<rect x="14" y="18" width="3" height="1" fill="#000000" />
<rect x="14" y="19" width="1" height="5" fill="#3F3F74" />
<rect x="15" y="19" width="1" height="5" fill="#000000" />
<rect x="16" y="19" width="1" height="5" fill="#3F3F74" />
<rect x="12" y="23" width="1" height="2" fill="#000000" />
<rect x="18" y="23" width="1" height="2" fill="#000000" />
<rect x="14" y="24" width="1" height="1" fill="#000000" />
<rect x="16" y="24" width="1" height="1" fill="#000000" />
</svg>